<?xml version="1.0" encoding="utf-8"?>
<!-- Generator: Adobe Illustrator 24.0.2, SVG Export Plug-In . SVG Version: 6.00 Build 0)  -->
<!DOCTYPE svg PUBLIC "-//W3C//DTD SVG 1.1//EN" "http://www.w3.org/Graphics/SVG/1.1/DTD/svg11.dtd" [
	<!ENTITY ns_extend "http://ns.adobe.com/Extensibility/1.0/">
	<!ENTITY ns_ai "http://ns.adobe.com/AdobeIllustrator/10.0/">
	<!ENTITY ns_graphs "http://ns.adobe.com/Graphs/1.0/">
	<!ENTITY ns_vars "http://ns.adobe.com/Variables/1.0/">
	<!ENTITY ns_imrep "http://ns.adobe.com/ImageReplacement/1.0/">
	<!ENTITY ns_sfw "http://ns.adobe.com/SaveForWeb/1.0/">
	<!ENTITY ns_custom "http://ns.adobe.com/GenericCustomNamespace/1.0/">
	<!ENTITY ns_adobe_xpath "http://ns.adobe.com/XPath/1.0/">
]>
<svg version="1.1" id="Layer_1" xmlns:x="&ns_extend;" xmlns:i="&ns_ai;" xmlns:graph="&ns_graphs;"
	 xmlns="http://www.w3.org/2000/svg" xmlns:xlink="http://www.w3.org/1999/xlink" x="0px" y="0px" viewBox="0 0 1095.5 1122.5"
	 style="enable-background:new 0 0 1095.5 1122.5;" xml:space="preserve">
<style type="text/css">
	.st0{fill-rule:evenodd;clip-rule:evenodd;fill:#FFFFFF;}
	.st1{fill-rule:evenodd;clip-rule:evenodd;fill:#20124D;}
</style>
<metadata>
	<sfw  xmlns="&ns_sfw;">
		<slices></slices>
		<sliceSourceBounds  bottomLeftOrigin="true" height="1070.2" width="1070.2" x="462.4" y="14.8"></sliceSourceBounds>
	</sfw>
</metadata>
<circle class="st0" cx="548" cy="561.4" r="535.1"/>
<g id="wheel_1_">
	<path id="wheel" class="st1" d="M509.3,874.7c27.5,3.5,53.5,3,78.5-0.5l74.6,94c5.3,2.7,10.6,3.6,16.2-0.2l154.8-90.5
		c2.6-6.2,3-12.1,0.1-17.7l-40.7-101.9c17.1-23.1,31.4-47.6,42.8-73.5l113.3-15.1c4.9-2.6,8.8-6.5,11.3-11.8v-62.4v-3v-64.3h0
		l-0.3-60.8c-2.7-7-8.4-11.8-16.4-14.8l-108.7-14.7c-9.9-24.2-24.2-46-41.7-70.2L832.9,263c2.8-6.4,2.6-12.2,0-17.4l-154.8-91.8
		c-4.7-1.7-9.3-1.4-14,0.2l-79.2,94c-27.5-3.4-53.5-2.8-78.5,0.6l-74.6-94c-5.3-2.7-10.6-3.6-16.2,0.2l-154.8,90.5
		c-2.6,6.2-3,12.1-0.1,17.7l40.7,101.9c-17.1,23.1-31.3,47.6-42.8,73.5l-113.3,15.1c-4.9,2.7-8.8,6.5-11.3,11.8v65.4V598h0l0.3,57.7
		c2.7,7,8.4,11.8,16.4,14.8l108.7,14.7c9.9,24.2,24.2,46,41.7,70.2l-39.8,104.3c-2.8,6.4-2.6,12.2,0,17.4l154.8,91.8
		c4.7,1.7,9.3,1.4,14-0.2L509.3,874.7z M441.4,667.9c-58.9-58.9-58.9-154.3,0-213.1c58.9-58.9,154.3-58.9,213.1,0
		c58.9,58.9,58.9,154.3,0,213.1C595.7,726.8,500.3,726.8,441.4,667.9z"/>
</g>
<path id="mask" class="st0" d="M610.7,122H503.2C242.3,122,30.8,333.5,30.8,594.4v0c0,1.9,1.6,3.5,3.5,3.5h1045.2
	c1.9,0,3.5-1.6,3.5-3.5v0C1083.1,333.5,871.6,122,610.7,122z"/>
<g>
	<path class="st1" d="M518.7,152v52.9C366.9,225.6,243.8,317,201.5,480.8h226c-12.4,17.4-20.5,37.4-23.8,58.5H137.4
		C164,309.4,317.6,180.8,518.7,152z"/>
	<path class="st1" d="M547.1,478.5c45.8,0,82.9,37.1,82.9,82.9c0,45.8-37.1,82.9-82.9,82.9c-45.8,0-82.9-37.1-82.9-82.9
		S501.3,478.5,547.1,478.5z"/>
	<path class="st1" d="M571.7,152.2c62.2,4.1,165.8,45,165.8,52.2v98.9l60.1-59.7c3.5-3.7,158.2,132.1,165.8,295h-56.2
		c-9.1-82.6-46.1-159.7-105.1-218.3l-123.2,122l-1.2-209c-14.8-7.4-30.8-12.3-47.3-14.5v228c-17.7-12.3-37.6-20.9-58.7-25.3
		L571.7,152.2L571.7,152.2z"/>
</g>
</svg>
