<svg id="CM_1" xmlns="http://www.w3.org/2000/svg" viewBox="0 0 1070.2 1070.2">
  <defs>
    <style>
      .cls-1 {
        fill: #fff;
      }

      .cls-2 {
        fill: #20124d;
        fill-rule: evenodd;
      }
    </style>
  </defs>
  <title>cm1</title>
  <circle id="mask_2" class="cls-1" cx="535.1" cy="535.1" r="535.1"/>
  <g id="wheel">
    <path id="wheel-2" data-name="wheel" class="cls-2" d="M509.28,874.68a294,294,0,0,0,78.5-.5l74.6,94c5.3,2.7,10.6,3.6,16.2-.2l154.8-90.5c2.6-6.2,3-12.1.1-17.7l-40.7-101.9a381.84,381.84,0,0,0,42.8-73.5l113.3-15.1a25.38,25.38,0,0,0,11.3-11.8V527.78h0l-.28-60.8c-2.7-7-8.4-11.8-16.4-14.8l-108.7-14.7c-9.9-24.2-24.2-46-41.7-70.2L832.88,263c2.8-6.4,2.6-12.2,0-17.4l-154.8-91.8a20.42,20.42,0,0,0-14,.2l-79.2,94a302.37,302.37,0,0,0-78.5.6l-74.6-94c-5.3-2.7-10.6-3.6-16.2.2l-154.8,90.5c-2.6,6.2-3,12.1-.1,17.7l40.7,101.9a387.09,387.09,0,0,0-42.8,73.5l-113.3,15.1a25.85,25.85,0,0,0-11.3,11.8V598h0l.28,57.7c2.7,7,8.4,11.8,16.4,14.8l108.7,14.7c9.9,24.2,24.2,46,41.7,70.2l-39.8,104.3c-2.8,6.4-2.6,12.2,0,17.4l154.8,91.8a20.42,20.42,0,0,0,14-.2ZM441.41,668a150.7,150.7,0,1,1,213.12,0A150.68,150.68,0,0,1,441.41,668Z" transform="translate(-12.87 -26.29)"/>
  </g>
  <path id="mask" class="cls-1" d="M490.36,95.7H597.82A472.38,472.38,0,0,1,1070.2,568.08v0a3.52,3.52,0,0,1-3.52,3.52H21.5A3.52,3.52,0,0,1,18,568.08v0A472.38,472.38,0,0,1,490.36,95.7Z"/>
  <g id="CM_2">
    <path class="cls-2" d="M518.68,152v52.9c-151.8,20.7-274.9,112.1-317.2,275.9h226a137.19,137.19,0,0,0-23.8,58.5H137.38C164,309.38,317.58,180.78,518.68,152Z" transform="translate(-12.87 -26.29)"/>
    <path class="cls-2" d="M547.08,478.48a82.9,82.9,0,1,1-82.9,82.9A82.88,82.88,0,0,1,547.08,478.48Z" transform="translate(-12.87 -26.29)"/>
    <path class="cls-2" d="M571.68,152.18c62.2,4.1,165.8,45,165.8,52.2v98.9l60.1-59.7c3.5-3.7,158.2,132.1,165.8,295h-56.2a363.76,363.76,0,0,0-105.1-218.3l-123.2,122-1.2-209a150.18,150.18,0,0,0-47.3-14.5v228a160,160,0,0,0-58.7-25.3V152.18Z" transform="translate(-12.87 -26.29)"/>
  </g>
</svg>
