<svg viewBox="0 0 413 1171" fill="none" xmlns="http://www.w3.org/2000/svg">
<g opacity="0.6">
<path opacity="0.6" d="M119.666 158.209L130.902 160.342L132.521 152.238L121.285 150.106L119.666 158.209Z" fill="#F55F44"/>
<path opacity="0.6" d="M125.739 175.721L168.869 183.908L169.394 181.28L126.264 173.094L125.739 175.721Z" fill="#F55F44"/>
<path opacity="0.6" d="M136.288 183.639L167.736 189.608L168.086 187.857L136.638 181.887L136.288 183.639Z" fill="#F55F44"/>
</g>
<path d="M88.6746 285.596C85.564 295.437 90.2299 307.071 99.3396 312.251C103.152 314.416 107.552 315.517 111.258 317.864C119.301 322.967 122.474 332.755 125.087 341.756C128.082 352.108 131.095 363.048 128.349 373.461C126.571 380.097 122.616 385.97 120.35 392.467C118.457 397.906 117.799 403.682 118.421 409.393C118.75 412.425 119.532 415.579 121.656 417.814C124.731 421.045 129.655 421.53 134.099 422.309C143.51 424.051 152.364 427.943 159.934 433.665C167.504 439.387 173.574 446.776 177.648 455.227" stroke="url(#paint0_linear)" stroke-width="2" stroke-miterlimit="10"/>
<path d="M89.6258 285.596C86.5152 295.437 91.1811 307.071 100.291 312.251C104.104 314.416 108.503 315.517 112.209 317.864C120.252 322.967 123.425 332.755 126.038 341.756C129.033 352.108 132.046 363.048 129.3 373.461C127.522 380.097 123.567 385.97 121.301 392.467C119.408 397.906 118.75 403.682 119.372 409.393C119.701 412.425 120.483 415.579 122.607 417.814C125.682 421.045 130.606 421.53 135.05 422.309C144.461 424.051 153.315 427.943 160.885 433.665C168.455 439.387 174.526 446.776 178.599 455.227" stroke="#535461" stroke-width="2" stroke-miterlimit="10"/>
<path d="M160.052 643.652C168.1 636.979 170.576 624.724 165.747 615.587C163.725 611.765 160.62 608.534 158.788 604.614C154.816 596.101 157.535 586.184 160.291 577.224C163.471 566.924 166.96 556.119 175.015 548.773C180.172 544.106 186.745 541.221 192.238 536.927C196.833 533.329 200.571 528.801 203.195 523.658C204.588 520.928 205.667 517.859 205.107 514.862C204.294 510.527 200.408 507.541 197.089 504.558C190.11 498.163 184.787 490.247 181.555 481.459C178.323 472.671 177.276 463.26 178.498 454" stroke="#535461" stroke-width="2" stroke-miterlimit="10"/>
<path d="M207.357 212.068C199.687 222.463 191.724 233.724 191.066 246.519C190.062 266.209 206.175 282.313 213.436 300.73C216.559 308.84 217.972 317.482 217.59 326.137C217.209 334.792 215.04 343.283 211.214 351.103C207.659 358.197 202.673 365.24 203.287 373.097C203.66 377.896 206.122 382.253 208.104 386.663C212.968 397.712 215.091 409.723 214.3 421.722C213.509 433.721 209.828 445.369 203.553 455.721" stroke="url(#paint1_linear)" stroke-width="2" stroke-miterlimit="10"/>
<path d="M208.308 212.068C200.638 222.463 192.675 233.724 192.018 246.519C191.013 266.209 207.126 282.313 214.387 300.73C217.512 308.84 218.926 317.481 218.546 326.136C218.166 334.791 215.999 343.283 212.174 351.103C208.619 358.197 203.633 365.24 204.247 373.097C204.62 377.896 207.082 382.253 209.064 386.663C213.928 397.712 216.051 409.723 215.26 421.722C214.469 433.721 210.788 445.369 204.513 455.721" stroke="#535461" stroke-width="2" stroke-miterlimit="10"/>
<path d="M205.336 454C197.666 464.395 189.703 475.657 189.045 488.451C188.041 508.141 204.154 524.245 211.415 542.662C214.539 550.772 215.953 559.413 215.573 568.068C215.193 576.723 213.026 585.215 209.202 593.035C205.647 600.13 200.661 607.172 201.274 615.029C201.647 619.829 204.109 624.186 206.091 628.595C210.955 639.644 213.078 651.656 212.287 663.655C211.497 675.653 207.815 687.301 201.541 697.654" stroke="#535461" stroke-width="2" stroke-miterlimit="10"/>
<path d="M159.336 883C151.666 893.395 143.703 904.657 143.045 917.451C142.041 937.141 158.154 953.245 165.415 971.662C168.539 979.772 169.953 988.413 169.573 997.068C169.193 1005.72 167.026 1014.21 163.202 1022.04C159.647 1029.13 154.661 1036.17 155.274 1044.03C155.647 1048.83 158.109 1053.19 160.091 1057.6C164.955 1068.64 167.078 1080.66 166.287 1092.65C165.497 1104.65 161.815 1116.3 155.541 1126.65" stroke="#535461" stroke-width="2" stroke-miterlimit="10"/>
<path d="M161.336 642C153.666 652.395 145.703 663.657 145.045 676.451C144.041 696.141 160.154 712.245 167.415 730.662C170.539 738.772 171.953 747.413 171.573 756.068C171.193 764.723 169.026 773.215 165.202 781.035C161.647 788.13 156.661 795.172 157.274 803.029C157.647 807.829 160.109 812.186 162.091 816.595C166.955 827.644 169.078 839.656 168.287 851.655C167.497 863.653 163.815 875.301 157.541 885.654" stroke="#535461" stroke-width="2" stroke-miterlimit="10"/>
<path d="M202.336 696C194.666 706.395 186.703 717.657 186.045 730.451C185.041 750.141 201.154 766.245 208.415 784.662C211.539 792.772 212.953 801.413 212.573 810.068C212.193 818.723 210.026 827.215 206.202 835.035C202.647 842.13 197.661 849.173 198.274 857.03C198.647 861.829 201.109 866.186 203.091 870.595C207.955 881.645 210.078 893.656 209.287 905.655C208.497 917.653 204.815 929.302 198.541 939.654" stroke="#535461" stroke-width="2" stroke-miterlimit="10"/>
<path d="M199.56 938C191.785 944.901 183.712 952.377 183.045 960.871C182.027 973.942 198.362 984.633 205.723 996.859C208.89 1002.24 210.324 1007.98 209.939 1013.73C209.553 1019.47 207.356 1025.11 203.48 1030.3C199.876 1035.01 194.821 1039.68 195.443 1044.9C195.821 1048.09 198.317 1050.98 200.326 1053.91C205.257 1061.24 207.409 1069.22 206.608 1077.18C205.806 1085.15 202.074 1092.88 195.713 1099.75" stroke="#535461" stroke-width="2" stroke-miterlimit="10"/>
<path d="M316.485 306.953L320.191 336.406C320.68 340.321 321.08 344.592 318.947 347.927C316.903 351.089 313.072 352.596 310.06 354.935C300.283 362.601 301.172 377.328 304.514 389.135C307.855 400.942 312.761 413.624 308.069 424.981C306.131 429.667 302.736 433.644 300.15 437.975C295.816 445.495 294.097 454.181 295.253 462.733" stroke="url(#paint2_linear)" stroke-width="2" stroke-miterlimit="10"/>
<path d="M317.372 306.953L321.078 336.406C321.567 340.321 321.967 344.592 319.834 347.927C317.79 351.089 313.959 352.596 310.946 354.935C301.17 362.601 302.059 377.328 305.4 389.135C308.742 400.942 313.648 413.624 308.955 424.981C307.018 429.667 303.623 433.644 301.037 437.975C296.702 445.495 294.984 454.181 296.14 462.733" stroke="#535461" stroke-width="2" stroke-miterlimit="10"/>
<path d="M297.183 461.444L287.113 489.448C285.77 493.169 284.187 497.17 280.758 499.239C277.488 501.191 273.369 500.889 269.604 501.685C257.354 504.337 251.454 517.923 249.081 529.95C246.708 541.978 245.34 555.465 235.969 563.62C232.101 566.985 227.25 569.084 222.961 571.851C215.656 576.721 210.166 583.766 207.314 591.931" stroke="#535461" stroke-width="2" stroke-miterlimit="10"/>
<path d="M207.503 590.717L205.808 620.345C205.578 624.283 205.197 628.555 202.493 631.47C199.907 634.23 195.864 635.054 192.474 636.837C181.461 642.699 179.664 657.347 180.812 669.544C181.959 681.74 184.487 695.068 177.808 705.437C175.051 709.716 170.988 713.045 167.657 716.863C162.027 723.518 158.76 731.771 158.346 740.387" stroke="#535461" stroke-width="2" stroke-miterlimit="10"/>
<path d="M158.349 739.767L175.063 764.572C177.281 767.871 179.582 771.527 179.186 775.438C178.791 779.155 176.042 782.16 174.404 785.558C169.126 796.651 176.618 809.47 184.982 818.612C193.346 827.755 203.51 837.007 204.467 849.214C204.861 854.252 203.625 859.282 203.276 864.281C202.809 872.894 205.218 881.423 210.142 888.591" stroke="#535461" stroke-width="2" stroke-miterlimit="10"/>
<path d="M208.513 886.705L227.786 917.984C230.345 922.143 233.015 926.736 232.89 931.341C232.751 935.716 230.103 938.991 228.644 942.852C223.95 955.466 232.715 971.507 242.119 983.273C251.524 995.04 262.815 1007.13 264.713 1021.74C265.495 1027.77 264.575 1033.61 264.578 1039.52C264.725 1049.7 267.868 1060.1 273.536 1069.15" stroke="#535461" stroke-width="2" stroke-miterlimit="10"/>
<g opacity="0.7">
<path opacity="0.7" d="M412.666 185.789C412.654 172.003 409.298 158.416 402.87 146.137C396.443 133.857 387.126 123.234 375.682 115.134C364.238 107.034 350.991 101.687 337.022 99.5298C323.053 97.3729 308.758 98.467 295.306 102.723C296.047 97.812 296.43 92.8561 296.452 87.8924C296.596 65.176 287.655 43.2985 271.525 26.9004C255.396 10.5023 233.347 0.873558 210.055 0.0565676C186.764 -0.760423 164.062 7.29858 146.765 22.5242C129.468 37.7498 118.936 58.9443 117.404 81.612C103.95 77.348 89.6515 76.2473 75.6773 78.3998C61.7031 80.5523 48.4497 85.8969 37 93.9969C25.5504 102.097 16.2294 112.722 9.79884 125.005C3.36826 137.288 0.0105206 150.88 0 164.669C0 208.502 33.1149 270.847 76.2994 281.892L83.0095 285.634L79.3656 297.814H100.962L96.2697 285.617L102.953 281.892C136.317 273.359 163.664 234.204 174.382 196.617C180.245 200.428 186.7 203.292 193.499 205.098L200.209 208.84L196.565 221.02H218.162L213.469 208.823L220.153 205.098C225.112 203.797 229.888 201.906 234.373 199.467C240.141 241.611 270.812 293.075 309.686 303.011L316.396 306.754L312.752 318.933H334.349L329.656 306.736L336.34 303.011C379.586 291.966 412.666 229.622 412.666 185.789Z" fill="url(#paint3_linear)"/>
</g>
<path d="M102.922 292.24H82.0273L85.6801 280.017H98.2204L102.922 292.24Z" fill="#F55F44"/>
<path d="M178.679 163.41C178.679 210.093 139.85 278.493 91.9549 278.493C44.0601 278.493 5.23047 210.058 5.23047 163.41C5.23047 140.991 14.3675 119.491 30.6315 103.638C46.8955 87.7859 68.9542 78.8801 91.9549 78.8801C114.956 78.8801 137.014 87.7859 153.278 103.638C169.542 119.491 178.679 140.991 178.679 163.41Z" fill="#F55F44"/>
<path d="M98.22 280.528H85.6797L78.3652 276.457H105.534L98.22 280.528Z" fill="#535461"/>
<path d="M216.334 217.932H195.439L199.092 205.709H211.632L216.334 217.932Z" fill="#4D8AF0"/>
<path d="M293.537 90.1966C293.537 136.88 254.707 205.28 206.813 205.28C158.918 205.28 120.07 136.888 120.07 90.1966C120.07 67.7779 129.207 46.2774 145.471 30.425C161.735 14.5726 183.794 5.66675 206.795 5.66675C229.796 5.66675 251.854 14.5726 268.118 30.425C284.382 46.2774 293.519 67.7779 293.519 90.1966H293.537Z" fill="#4D8AF0"/>
<path d="M211.632 206.22H199.092L191.777 202.14H218.947L211.632 206.22Z" fill="#535461"/>
<path opacity="0.1" d="M174.021 23.4048C174.021 23.4048 137.449 42.7571 132.25 81.4443L174.021 23.4048Z" fill="white"/>
<path d="M330.241 313.779H309.338L313 301.565H325.531L330.241 313.779Z" fill="#3AD29F"/>
<path d="M406 184.949C406 231.631 367.17 300.031 319.275 300.031C271.38 300.031 232.551 231.597 232.551 184.949C232.551 162.53 241.688 141.029 257.952 125.177C274.216 109.325 296.274 100.419 319.275 100.419C342.276 100.419 364.335 109.325 380.599 125.177C396.863 141.029 406 162.53 406 184.949Z" fill="#3AD29F"/>
<path d="M325.533 302.067H313.002L305.688 297.996H332.848L325.533 302.067Z" fill="#535461"/>
<path opacity="0.1" d="M287.92 119.26C287.92 119.26 251.348 138.612 246.148 177.299L287.92 119.26Z" fill="white"/>
<path d="M331.839 1015.33L92 1027.02L99.37 1170.69L339.209 1159L331.839 1015.33Z" fill="url(#paint4_linear)"/>
<path d="M326.638 1017.71L95.2344 1029.25L102.266 1163.16L333.67 1151.61L326.638 1017.71Z" fill="#EEEEEE"/>
<path d="M105.422 1059.11L134.863 1057.64L133.748 1036.4L104.307 1037.87L105.422 1059.11Z" fill="#6C63FF"/>
<path d="M133.184 1100.33L246.236 1094.69L245.875 1087.81L132.822 1093.45L133.184 1100.33Z" fill="#6C63FF"/>
<path d="M164.574 1113.73L247.014 1109.62L246.772 1105.02L164.333 1109.14L164.574 1113.73Z" fill="#6C63FF"/>
<defs>
<linearGradient id="paint0_linear" x1="39498.9" y1="96522.6" x2="48778.4" y2="96522.6" gradientUnits="userSpaceOnUse">
<stop stop-color="#808080" stop-opacity="0.25"/>
<stop offset="0.54" stop-color="#808080" stop-opacity="0.12"/>
<stop offset="1" stop-color="#808080" stop-opacity="0.1"/>
</linearGradient>
<linearGradient id="paint1_linear" x1="14956.2" y1="128159" x2="15807.6" y2="128159" gradientUnits="userSpaceOnUse">
<stop stop-color="#808080" stop-opacity="0.25"/>
<stop offset="0.54" stop-color="#808080" stop-opacity="0.12"/>
<stop offset="1" stop-color="#808080" stop-opacity="0.1"/>
</linearGradient>
<linearGradient id="paint2_linear" x1="17490.3" y1="91081.5" x2="18283.7" y2="91081.5" gradientUnits="userSpaceOnUse">
<stop stop-color="#808080" stop-opacity="0.25"/>
<stop offset="0.54" stop-color="#808080" stop-opacity="0.12"/>
<stop offset="1" stop-color="#808080" stop-opacity="0.1"/>
</linearGradient>
<linearGradient id="paint3_linear" x1="235657" y1="161568" x2="235657" y2="44338.1" gradientUnits="userSpaceOnUse">
<stop stop-color="#808080" stop-opacity="0.25"/>
<stop offset="0.54" stop-color="#808080" stop-opacity="0.12"/>
<stop offset="1" stop-color="#808080" stop-opacity="0.1"/>
</linearGradient>
<linearGradient id="paint4_linear" x1="1009.23" y1="114033" x2="-152.148" y2="90202.9" gradientUnits="userSpaceOnUse">
<stop stop-color="#808080" stop-opacity="0.25"/>
<stop offset="0.54" stop-color="#808080" stop-opacity="0.12"/>
<stop offset="1" stop-color="#808080" stop-opacity="0.1"/>
</linearGradient>
</defs>
</svg>
