<svg width="668" height="868" xmlns="http://www.w3.org/2000/svg" xmlns:xlink="http://www.w3.org/1999/xlink"><use xlink:href="#path0_fill" transform="rotate(-17.32 1258.2 -178.85)" fill="#847DFF"/><use xlink:href="#path1_fill" transform="rotate(-17.32 1388.47 -244.94)" fill="#E0E0E0"/><use xlink:href="#path2_fill" transform="rotate(-17.32 1331.11 -236.18)" fill="#E0E0E0"/><use xlink:href="#path3_fill" transform="rotate(-17.32 1433.37 181.99)" fill="#FFF"/><use xlink:href="#path4_fill" transform="rotate(-17.32 1430.24 264.5)" fill="#847DFF"/><use xlink:href="#path5_fill" transform="rotate(-17.32 894.4 -139.94)" fill="#FFF"/><use xlink:href="#path6_fill" transform="rotate(-17.32 950.8 -237.7)" fill="#847DFF"/><use xlink:href="#path7_fill" transform="rotate(-17.32 2809.54 -405.4)" fill="#E0E0E0"/><use xlink:href="#path8_fill" transform="rotate(-17.32 2765.16 -755.27)" fill="#E0E0E0"/><use xlink:href="#path9_fill" transform="rotate(-17.32 566.14 -978.64)" fill="#5C57B3"/><use xlink:href="#path10_fill" transform="rotate(-17.32 1329.1 -1055.1)" fill="#847DFF"/><use xlink:href="#path11_fill" transform="rotate(-17.32 515.3 -1045.35)" fill="#847DFF"/><use xlink:href="#path12_fill" transform="rotate(-17.32 1591.23 -335.35)" fill="url(#paint12_linear)"/><use xlink:href="#path13_fill" transform="rotate(-17.32 1603.8 -346.03)" fill="#847DFF"/><use xlink:href="#path14_fill" transform="rotate(-17.32 1676.02 -409.85)" opacity=".2"/><use xlink:href="#path15_fill" transform="rotate(-17.32 1722.81 -579)" opacity=".2"/><use xlink:href="#path16_fill" transform="rotate(-17.32 1608.54 -632.88)" opacity=".2"/><use xlink:href="#path17_fill" transform="rotate(-17.32 1814.41 -636.01)" opacity=".2"/><use xlink:href="#path18_fill" transform="rotate(-17.32 950.96 -237.74)" opacity=".2"/><defs><linearGradient id="paint12_linear" x2="1" gradientUnits="userSpaceOnUse" gradientTransform="scale(13933.6 14992.2) rotate(-90 2.94 1.66)"><stop offset="0" stop-color="gray" stop-opacity=".25"/><stop offset=".54" stop-color="gray" stop-opacity=".12"/><stop offset="1" stop-color="gray" stop-opacity=".1"/></linearGradient><path id="path0_fill" d="M171.26 0H16.23A16.22 16.22 0 0 0 0 16.22v285.91c0 8.96 7.27 16.22 16.23 16.22h155.03c8.96 0 16.23-7.26 16.23-16.22V16.22c0-8.96-7.27-16.22-16.23-16.22z"/><path id="path1_fill" d="M136.74 34.7L29.65 36.91 0 2.87 159.65 0l-22.91 34.7z"/><path id="path2_fill" d="M159.65 20.12H0L31.86 3.11 125.67 0l33.98 20.12z"/><path id="path3_fill" d="M398.08 57.18c-14.44-6.63-33.8 2.5-37.9 17.8C349.32 42.93 323.04 16.84 291.51 5c-5.22-1.96-17.84-7.91-21.85-3.27-1.87 2.16-1.72 10.66-1.5 17.75h-118.6v-4.15C149.5-.9 142.62-1.4 127.44 2.38c-13.23 3.3-25.39 10.55-35.39 19.7-16.13 14.74-27.34 33.96-38.3 52.87L34.62 55.28c-2.1-2.17-4.62-4.5-7.64-4.35-3.02.15-5.5 3.02-7.38 5.62C11.16 68.33 2.47 80.73.46 95.07c-1.98 14.12 2.76 28.23 7.5 41.7 4.56 13.16 10.63 27.9 23.72 32.6 14.12 5.05 29.02-4.04 41.26-12.71 19.16-13.57 38.8-27.7 52.75-46.32v154.97h1.6l-13.1 210.02h84.09l9.98-210.02h2.58l7.75 210.02h85.84l-13.42-210.02h2.78V112.75l2.35 2.06 43.34 37.56c9.01 7.82 19.34 16.1 31.21 15.48 8.57-.45 16.33-5.64 21.8-12.24 5.47-6.6 9.02-14.55 12.49-22.38 5.75-12.98 11.6-26.4 12-40.6.4-14.21-5.97-29.52-18.9-35.45z"/><path id="path4_fill" d="M57.23.56C51.61-1.3 45.21 1.7 41.73 6.48c-3.47 4.78-4.5 10.94-4.53 16.85 0 3.5.2 7.3-1.88 10.1a10.34 10.34 0 0 1-7.83 3.61 57.94 57.94 0 0 1-8.86-.7c-5.34-.53-11.24.14-15.07 3.85-3.84 3.7-4.21 11.14.4 13.86-5.4 4.61-5.25 14.18.27 18.63a9.55 9.55 0 0 0 5.42 16.3c-4.72 1.7-6.46 8.64-3.1 12.35 2 2.21 5 3.06 7.94 3.75a604.58 604.58 0 0 0 18.92 4.41c5.62 1.25 11.56 2.34 17 .54 14.4-4.75 8.83-22.9 7.92-33.68A534.37 534.37 0 0 1 56.4 27.6c0-2.5 1.62-26.78.82-27.05z"/><path id="path5_fill" d="M178.3 60.14h-15.98C152.9 26.89 123.62 0 88.94 0 54.27 0 24.98 26.88 15.57 60.14H0v34.49h13.32c5.74 36.17 37.46 60.14 75.62 60.14 38.17 0 69.92-23.98 75.62-60.14h13.74v-34.5z"/><path id="path6_fill" d="M61.95 123.8a61.92 61.92 0 0 0 61.95-61.9A61.92 61.92 0 0 0 61.95 0 61.92 61.92 0 0 0 0 61.9a61.92 61.92 0 0 0 61.95 61.9z"/><path id="path7_fill" d="M87.62 40.02c0 18.92-19.61 15.69-43.81 15.69C19.61 55.7 0 58.94 0 40 0 21.1 19.61 0 43.81 0c24.2 0 43.81 21.1 43.81 40.02z"/><path id="path8_fill" d="M87.62 40.02c0 18.92-19.61 15.69-43.81 15.69C19.61 55.7 0 58.94 0 40 0 21.1 19.61 0 43.81 0c24.2 0 43.81 21.1 43.81 40.02z"/><path id="path9_fill" d="M27.9 13.97A13.92 13.92 0 0 0 7.13 1.77a13.94 13.94 0 0 0-.47 24.05v680.82a5.68 5.68 0 0 0 5.68 5.68h4.1a5.7 5.7 0 0 0 5.67-5.68V25.19a13.9 13.9 0 0 0 5.77-11.22z"/><path id="path10_fill" d="M16.98 41.6c-2.5 3.85-7.49 7.05-11.64 4.98C1.99 44.92.92 40.73.49 37.01c-.94-8.3-.52-16.7 1.25-24.87C2.81 7.15 5.1 1.57 10 .26c3.06-.8 6.33.35 9.02 2.04 2.68 1.68 5 3.88 7.78 5.45 5.29 3.04 11.73 3.6 17.78 2.7 3-.43 5.94-1.24 8.95-1.45 3-.39 6.05.15 8.74 1.54a7.95 7.95 0 0 1 4.15 7.49c-.38 3-3.54 5.54-6.45 4.7a18.41 18.41 0 0 1 6.45 5.86 8.38 8.38 0 0 1 .48 8.39c-1.49 2.49-5.18 3.74-7.57 2 2.44 2 5 4.12 6.1 7.05 1.1 2.93.2 6.9-2.73 8.05-1.23.32-2.48.55-3.74.7-1.25.28-2.56 1.14-2.66 2.43-.11 1.48 1.37 2.5 2.25 3.74 1.94 2.65.87 6.62-1.49 8.9-2.36 2.29-5.64 3.31-8.74 4.26-4.7 1.41-9.39 2.82-14.1 4.14-5.16 1.45-10.6 2.8-15.83 1.67a17.3 17.3 0 0 1-12.5-23.2 17.3 17.3 0 0 1 6.06-7.77c2.57-1.85 3.06-4.99 5.13-7.35a15.85 15.85 0 0 0 3.75-10.94c0-5.88 2.25-11.57.87-17.3-.32 0-.56 0-.88.13-.27 9.83 2.06 19.18-3.84 28.1z"/><path id="path11_fill" d="M427.3 190.3C284.87 42.62 142.43 337.98 0 190.3V42.63c142.43 147.68 284.87-147.68 427.3 0V190.3z"/><path id="path12_fill" d="M119.13 0H7.97A7.96 7.96 0 0 0 0 7.96v120.83c0 4.4 3.57 7.96 7.97 7.96h111.16c4.4 0 7.97-3.56 7.97-7.96V7.96c0-4.4-3.57-7.96-7.97-7.96z"/><path id="path13_fill" d="M113.3 0H7.97A7.96 7.96 0 0 0 0 7.96V120.3c0 4.4 3.57 7.96 7.97 7.96H113.3c4.4 0 7.97-3.56 7.97-7.96V7.96c0-4.4-3.57-7.96-7.97-7.96z"/><path id="path14_fill" d="M22.22 0H0v59.2h22.22V0z"/><path id="path15_fill" d="M29.23 0H0v19.98h29.23V0z"/><path id="path16_fill" d="M16.16 0H0v14.36h16.16V0z"/><path id="path17_fill" d="M17.6 35.15a17.58 17.58 0 1 0 0-35.17 17.58 17.58 0 0 0 0 35.17z"/><path id="path18_fill" d="M69.73 13.62a61.9 61.9 0 0 1 49.47 24.62A61.9 61.9 0 0 0 56.12.28a61.99 61.99 0 0 0-54.84 49.1 61.84 61.84 0 0 0 11.17 49.74 61.86 61.86 0 0 1 28.1-78.2 62 62 0 0 1 29.18-7.3z"/></defs></svg>