<svg width="42" height="42" xmlns="http://www.w3.org/2000/svg" xmlns:xlink="http://www.w3.org/1999/xlink"><use xlink:href="#path0_fill" fill="#FFF"/><defs><path id="path0_fill" d="M19.38 41.94a21.08 21.08 0 0 1-18.5-14.9A20.98 20.98 0 0 1 8.14 4.4a21.02 21.02 0 0 1 33.74 14c.15 1.1.15 4.1-.01 5.23-.35 2.54-.93 4.41-2.06 6.7a21 21 0 0 1-20.44 11.61zm-2.77-6.32c.14-.05.5-.46 1.5-1.74 1.23-1.55 1.34-1.67 1.48-1.64.36.08 1.76.11 2.28.05.49-.05.57-.05.68.04.06.05.64.8 1.3 1.65 1.3 1.68 1.41 1.79 1.8 1.62.42-.18 5.3-3.03 5.43-3.17a.6.6 0 0 0 .14-.33c0-.1-.34-1-.75-2-.4-1.02-.74-1.9-.74-1.97 0-.08.2-.43.44-.8.24-.36.56-.91.71-1.22.15-.31.3-.6.35-.63.04-.04.93-.18 1.98-.32 1.04-.14 1.99-.3 2.1-.33.38-.12.44-.32.44-1.46v-1H26.12v.17a5.2 5.2 0 0 1-3.21 3.72c-.7.27-1.14.34-1.97.34-.84 0-1.27-.07-1.97-.34a5.36 5.36 0 0 1-3.19-3.56l-.07-.3-4.8-.02-4.8-.02v1c0 1.15.07 1.35.46 1.47.1.04 1.05.19 2.1.33 1.04.14 1.93.28 1.97.32.04.03.2.32.36.63.25.52.7 1.26 1.08 1.75l.15.2-.8 1.94a23.37 23.37 0 0 0-.78 2.1c0 .1.07.24.15.33.16.18 5.15 3.08 5.6 3.26l.2-.07zm5.56-11.97a2.9 2.9 0 0 0 0-5.3c-.43-.2-.55-.23-1.08-.25-.48-.02-.66 0-1 .11-.8.27-1.4.8-1.79 1.61-.22.46-.22.5-.22 1.18 0 .7 0 .73.22 1.18.39.8.97 1.32 1.77 1.6.3.1.49.13 1 .12.56-.02.66-.04 1.1-.25zm-6.43-4.06c.07-.23.24-.63.38-.9l.24-.48-4.02-.01-4.02-.02.02-.22c.02-.36.47-1.67.87-2.49a12.2 12.2 0 0 1 2.37-3.41 12.81 12.81 0 0 1 7.36-3.9l.85-.14v-1.6l-.45.04A14.9 14.9 0 0 0 6.37 19.82v.19h9.24l.13-.42zm20.14.38l-.1-.61a16.12 16.12 0 0 0-3-6.85 22.29 22.29 0 0 0-2.53-2.65l-.26-.2-1 1.06c-.78.8-1.05 1.05-1.15 1.04-.13-.02-.13-.05-.15-1.83l-.01-1.8-.74-.35a16.26 16.26 0 0 0-4.87-1.4c-.1 0-.1.19-.1 4.73v4.73l.41.11c.23.06.65.21.93.34l.52.24v-4l.03-4.02.16-.01c.18-.02 1.41.36 1.66.52l.13.08v7.35l2.17-2.16a51.54 51.54 0 0 1 2.22-2.15c.1 0 .8.76 1.27 1.38a13.81 13.81 0 0 1 2.6 6.36c0 .12.03.13.9.13.5 0 .9-.02.9-.04z"/></defs></svg>