<svg width="264" height="330" xmlns="http://www.w3.org/2000/svg" xmlns:xlink="http://www.w3.org/1999/xlink"><use xlink:href="#path0_fill" transform="rotate(-13.9 229.32 458.32)" fill="#FFF"/><use xlink:href="#path1_fill" transform="rotate(-13.9 1165.76 42.6)" fill="#847DFF"/><use xlink:href="#path2_fill" transform="rotate(-13.9 1014.36 -721.9)" fill="#847DFF"/><use xlink:href="#path3_fill" transform="rotate(-13.9 89.62 -598.32)" fill="#847DFF"/><use xlink:href="#path4_fill" transform="rotate(-13.9 305.47 -777.26)" fill="#20124D"/><defs><path id="path0_fill" d="M357.58 68.97h-39.37a20.82 20.82 0 0 1-10.8-19.91S276.88 33.4 264.18 37.2L247.67 1.65s-15.26-6.94-18.4 7.64c0 0-.66 53.34-3.16 58.67 0 0-17.16 77.8-121.31 49.96 0 0-29.21-13.4-55.28-1.37 0 0-13.36 6.94-38.78-11.43 0 0-27.97 13.92 6.36 46.28 0 0-12.71 25.36-1.25 49.42l14.6 62.76s1.9 15.23 7.6 13.93H73.7a16.34 16.34 0 0 0-8.97-10.85l-6.41-.65v-29.63s17.81 3.8 47.08-22.82c0 0 53.09 30.46 109.62 22.17l5.94 36.09s3.03 13.33 8.73 13.33h33.67a18.22 18.22 0 0 0-9.5-15.17l-6.36-2.55-.65-37.69s34.91 0 48.28-51.2l-1.9-61.75s32.42-4.33 50.17-15.7c.24.06 16.75-3.32 14.2-32.12z"/><path id="path1_fill" d="M.24 7.23A228 228 0 0 0 21.9 0v33.72a41.97 41.97 0 0 1 11.46 14.4H9.2S14.43 29.81 0 20.27L.24 7.23z"/><path id="path2_fill" d="M0 13.33S14.43 4.15 21.67 0v47.4h4.28s8.9 0 11.46 14.4H13.24A35.85 35.85 0 0 0 0 33.97V13.33z"/><path id="path3_fill" d="M0 12.75l10.8 17.77c5.87.52 11.64 1.8 17.17 3.8L24.17 7.7S10.8-12.62 0 12.75z"/><path id="path4_fill" d="M4.28 8.53a4.27 4.27 0 1 0 0-8.54 4.27 4.27 0 0 0 0 8.54z"/></defs></svg>