<svg viewBox="25 20 109 168" version="1.1" xmlns="http://www.w3.org/2000/svg" xmlns:xlink="http://www.w3.org/1999/xlink">
<g id="Canvas" fill="none">
<g id="?" filter="url(#filter0_d)">
<path d="M 32.2518 105.164L 32.2518 95.8117C 32.2518 88.7065 33.7095 82.725 36.6249 77.8674C 39.5403 72.9372 44.7151 68.1521 52.1494 63.5119C 58.0532 59.8143 62.2805 56.4792 64.8315 53.5066C 67.4554 50.534 68.7673 47.1264 68.7673 43.2838C 68.7673 40.2387 67.3825 37.8462 64.6128 36.1061C 61.8432 34.2935 58.2354 33.3873 53.7894 33.3873C 42.7837 33.3873 29.9194 37.2661 15.1966 45.0239L 0 15.443C 18.1484 5.14766 37.0986 0 56.8506 0C 73.104 0 85.8589 3.55261 95.1153 10.6578C 104.372 17.763 109 27.4421 109 39.695C 109 48.4677 106.923 56.0805 102.768 62.5332C 98.6867 68.9134 92.127 74.9673 83.0893 80.695C 75.4363 85.6251 70.6259 89.2502 68.658 91.5703C 66.763 93.8179 65.8154 96.5004 65.8154 99.618L 65.8154 105.164L 32.2518 105.164ZM 27.5507 143.228C 27.5507 136.558 29.4821 131.41 33.345 127.785C 37.2808 124.16 43.0388 122.347 50.6189 122.347C 57.9074 122.347 63.4831 124.196 67.346 127.894C 71.2818 131.519 73.2497 136.63 73.2497 143.228C 73.2497 149.826 71.209 154.937 67.1274 158.562C 63.1187 162.187 57.6158 164 50.6189 164C 43.4032 164 37.7546 162.224 33.673 158.671C 29.5914 155.046 27.5507 149.898 27.5507 143.228Z" transform="translate(25 21)" fill="#847DFF"/>
</g>
</g>
<defs>
<filter id="filter0_d" x="0" y="0" width="159" height="214" filterUnits="userSpaceOnUse" color-interpolation-filters="sRGB">
<feFlood flood-opacity="0" result="BackgroundImageFix"/>
<feColorMatrix in="SourceAlpha" type="matrix" values="0 0 0 0 0 0 0 0 0 0 0 0 0 0 0 0 0 0 255 0"/>
<feOffset dy="4"/>
<feGaussianBlur stdDeviation="12.5"/>
<feColorMatrix type="matrix" values="0 0 0 0 0 0 0 0 0 0 0 0 0 0 0 0 0 0 0.25 0"/>
<feBlend mode="normal" in2="BackgroundImageFix" result="effect1_dropShadow"/>
<feBlend mode="normal" in="SourceGraphic" in2="effect1_dropShadow" result="shape"/>
</filter>
</defs>
</svg>

