<svg width="416" height="223" xmlns="http://www.w3.org/2000/svg" xmlns:xlink="http://www.w3.org/1999/xlink"><use xlink:href="#path0_fill" transform="rotate(-52 178.1 -54.3)" fill="#FFD4CC"/><use xlink:href="#path1_fill" transform="rotate(-52 40.3 26.1)" fill="#FFD4CC"/><use xlink:href="#path2_stroke" transform="rotate(-52 82 -14.8)" fill="#20124D"/><use xlink:href="#path3_fill" transform="rotate(-52 85.2 -61.1)" fill="#847DFF"/><use xlink:href="#path4_fill" transform="rotate(-52 171.4 -120.2)" fill="#847DFF"/><use xlink:href="#path5_fill" transform="rotate(-52 177.5 -232.2)" fill="#847DFF"/><use xlink:href="#path6_fill" transform="rotate(-52 295.2 -247)" fill="#FFD4CC"/><use xlink:href="#path7_fill" transform="rotate(-52 324.8 -232.8)" fill="#847DFF"/><use xlink:href="#path8_fill" transform="rotate(-52 174.2 -343)" fill="#FFD4CC"/><use xlink:href="#path9_fill" transform="rotate(-52 151 -24)" fill="#FFD4CC"/><use xlink:href="#path10_fill" transform="rotate(-52 211 -21.8)" fill="#FFD4CC"/><use xlink:href="#path11_fill" transform="rotate(-52 16.5 19.5)" fill="#5C57B2"/><use xlink:href="#path12_fill" transform="rotate(-52 49.5 -3.3)" fill="#20124D"/><use xlink:href="#path13_fill" transform="rotate(-52 364.7 -185.6)" fill="#847DFF"/><use xlink:href="#path14_fill" transform="rotate(-52 366.5 -221.4)" fill="#5C57B2"/><use xlink:href="#path15_fill" transform="rotate(-52 309.9 -337.6)" fill="#5C57B2"/><defs><path id="path0_fill" d="M27 25a44 44 0 0 1-16.2.4A13.5 13.5 0 0 1 0 14.6 13.3 13.3 0 0 1 8.8 2a39.1 39.1 0 0 1 16-2l83.9 1.4c-1.7 5-3 15.7-7.4 19.1C97 24.1 85.2 22 79.5 22c-17.5 0-35 1-52.4 3.1z"/><path id="path1_fill" d="M3 37c-.8.6-1.4 1.2-2 1.9a4.8 4.8 0 0 0 3 7.6c2 .4 3.9 1.5 5.3 3 2.3 3.2 4 6.8 5.3 10.6a12.6 12.6 0 0 0 8 8 11.3 11.3 0 0 0 9.8-3.7c2.6-2.5 4.5-5.6 6.9-8.2 3.6-3.1 7.5-6 11.4-8.8a36 36 0 0 0 12-19.2c1.6-5.2 1-10.9-1.4-15.8C55 1.5 32.1-3.7 21.3 3c-5.1 3.2-6 8.8-6.5 14.4C13.6 28 10.6 30.8 2.9 37z"/><path id="path2_stroke" d="M8.7-.2a22 22 0 0 1-9 10.5l.6.9C4.5 8.6 7.8 4.7 9.6.2l-.9-.4z"/><path id="path3_fill" d="M1.3 30.9c2.1 5.7 3.8 11.6 5.2 17.6 1.1 7.4 0 15.4 3.8 21.9C14.9 78 24.7 80.7 33 84a64.9 64.9 0 0 1 26 20.5c4 5.5 7.8 12 14.3 14.3 5.4 1.3 11 .9 16.3-1.2a351.7 351.7 0 0 0 62.7-25.1c-5.6-14.3-11.6-29.1-23-39.3a98 98 0 0 0-22-13.5l-49-24.4C46.8 9.5 29.6-1.4 15.9.2.9 1.9-2.2 19 1.3 30.9z"/><path id="path4_fill" d="M64.3 30c-1.8 2-4 3.6-6.6 4.6-9.3 4.7-19 8.7-28.7 12.2-11 4-23.5 8.4-27.6 19.2-2.7 7.1-1 15 1 22.3 7.5 27.6 18.1 56 39.4 75L79 148.7a1699.9 1699.9 0 0 1-42.4-66.2C57.8 67 86.5 68 111.5 60A43.6 43.6 0 0 0 130 49.6c9-9.4 10.4-23.6 11-36.6.1-4.4 0-9.7-3.9-12a12.3 12.3 0 0 0-9.1-.2 302.3 302.3 0 0 0-55 19c-7.2 3.4-4.6 4.6-8.6 10.2z"/><path id="path5_fill" d="M23.3 36c4 5.4 8.9 10.3 14.3 14.4 5.7 3.4 12 6 18.4 7.5l49.5 14.6a21.4 21.4 0 0 1-4.6-20c2-6.9 5.2-13.3 9.4-19.1-12.7.5-25.4-.4-38-2.7a59 59 0 0 1-32.7-18C35.6 7.9 32 1.8 25.8.2 21-1.1 0 4.9 0 10c0 3.3 9.3 10.4 11.5 12.8 4.1 4.3 8 8.7 11.8 13.2z"/><path id="path6_fill" d="M31.4 19c1 1 1.7 2.2 1.9 3.5 0 2-2.3 3.4-4.3 3.4s-4-.4-6-.2c-2.8.2-5.5 1.8-8 .8a8 8 0 0 1-3.4-3.4L0 5.8c6.6-4 10.6-9 16.7-3 5.2 5 9.8 11 14.7 16.3z"/><path id="path7_fill" d="M5.3 10.7a12 12 0 0 0-4.5 3.8A4.5 4.5 0 0 0 1 20a7 7 0 0 0 4.7 1.3L73 22.8A47 47 0 0 0 61.5 3.9c-8.6-7.2-15-2.5-23.9-1C26 5 16.1 4.7 5.3 10.7z"/><path id="path8_fill" d="M33.4.2c2-.2 4.2.1 6.1 1a11.4 11.4 0 0 1 4.6 8.6 18 18 0 0 0 3.2 9.5L9.6 20.7a9.2 9.2 0 0 1-7.6-2 8.2 8.2 0 0 1-1.5-4.3C-.5 6.8-.9 1 7.4.4c8.3-.7 17.4-.2 26-.2z"/><path id="path9_fill" d="M154.7 17c4 7.2 3.3 17.6-3.7 21.9a25 25 0 0 1-9.3 2.7c-34.1 5-69 10-103 4.1-2.7-.8-5.7-.6-8.4.4-3.2 1.7-4.3 5.7-5.5 9.1-1.2 3.5-3.4 7.3-7.2 7.3l-2.3-8.1a11 11 0 0 0-7.4 2.7l.4-5.7A3.2 3.2 0 0 1 3 48C.1 48-.8 43.8.8 41.4a19 19 0 0 1 6.9-4.9c2.4-1.4 4.8-4 4.3-6.7-3 0-4.4-4.6-2.4-6.9a7.8 7.8 0 0 1 8.5-1.3 68 68 0 0 1 8 4.5 43.5 43.5 0 0 0 18.5 3.8 316 316 0 0 0 79.9-7 23 23 0 0 1-13.8-14.5c6.9-2.9 18.1-10.4 25.7-8 6.6 2.3 15 10.7 18.3 16.6z"/><path id="path10_fill" d="M9.2.2a13 13 0 0 0-6.9 1.5 4.6 4.6 0 0 0-1.8 6c.7 1.1 2 1.8 2.6 3 1 2.7-3 5.5-2 8.1 1.3 2.7 4.7 2.2 5.2 4.5 0 .8 0 1.6-.2 2.4a7.9 7.9 0 0 0 6.2 8.3c3.8.6 7.7 0 11-1.8a42 42 0 0 0 17.3-14.5A32 32 0 0 0 25 24.5c-1-.9-.5-2.6.6-3.5 1-.9 2.4-1 3.4-1.9 1-.7 1.7-2.4.8-3.4a3 3 0 0 0-2.4-.4c-3 .4-6 .9-8.9 1.5 1.5-1.3 3.5-1.4 5.2-2.3 1.7-.9 2.8-3.5 1.3-4.6a3.5 3.5 0 0 0-2.9 0c-2.4.7-5 1.3-7.5 1.7.5-2.4 5.2-7 4.5-9C18.2-.8 12 0 9.2.1z"/><path id="path11_fill" d="M6.2 7.7c4.6-2.3 9.5-4 14.5-4.8C27.7 1.1 34.9.1 42.1 0a31 31 0 0 1 20 6.9c9.3 8.1 11.1 22.5 20.7 30.2 7.9 6.3 19 6.4 28.9 5.1 9.9-1.3 20-3.7 29.8-1.5a16.3 16.3 0 0 1-17.5 9.8c2.7 2.4 6.7 2 10.2 2 3.6 0 7.9 1.3 8.6 4.8a6.1 6.1 0 0 1-4.3 6.4c-2.7.7-5.5.8-8.3.3a5.4 5.4 0 1 1 .8 9.4 4 4 0 1 1 1 7.4c3.7-.4 5.9 4.7 4.2 8-2.1 3-5.3 5.1-9 5.8-31.4 10-65.5 3.5-98-3.2-5.2-1.1-11-2.5-14.2-7a22.1 22.1 0 0 1-3-11.7c-.8-11.8 7.7-31.3-1-40.3C3.4 24.6-6.7 14.1 6.2 7.7z"/><path id="path12_fill" d="M2.3 4.7a2.3 2.3 0 1 0 0-4.7 2.3 2.3 0 0 0 0 4.7z"/><path id="path13_fill" d="M159.4 17.4c-3.5 0-7 0-10.4-.3L0 11V6.8l149 6.1c18.5.8 39.1.5 50.8-12.9l3.2 2.8c-10.4 12.2-27.2 14.6-43.6 14.6z"/><path id="path14_fill" d="M12.5 25a12.5 12.5 0 1 0 0-25 12.5 12.5 0 0 0 0 25z"/><path id="path15_fill" d="M12.5 25a12.5 12.5 0 1 0 0-25 12.5 12.5 0 0 0 0 25z"/></defs></svg>