<svg width="760" height="492" xmlns="http://www.w3.org/2000/svg" xmlns:xlink="http://www.w3.org/1999/xlink"><use xlink:href="#path0_fill" transform="rotate(-17.3 733 -842.7)" fill="#847DFF"/><use xlink:href="#path1_fill" transform="rotate(-17.3 1330 215.3)" fill="#5C57B2"/><use xlink:href="#path2_fill" transform="rotate(-17.3 760 -1581.7)" fill="#FFF"/><use xlink:href="#path3_fill" transform="rotate(-17.3 695.4 -1312)" fill="#FFF"/><use xlink:href="#path4_fill" transform="rotate(-17.3 1577.9 -230.5)" fill="#FFF"/><use xlink:href="#path5_fill" transform="rotate(-17.3 1014.1 -1318.6)" fill="#847DFF"/><use xlink:href="#path6_fill" transform="rotate(-17.3 1051.1 -1726.7)" fill="#5C57B2"/><use xlink:href="#path7_fill" transform="rotate(-17.3 1212 -1105.5)" fill="#FFF"/><use xlink:href="#path8_fill" transform="rotate(-17.3 1617.4 -70)" fill="#847DFF"/><use xlink:href="#path3_fill" transform="rotate(-17.3 984.5 -899)" fill="#5C57B2"/><use xlink:href="#path9_fill" transform="rotate(-17.3 1440.6 -691.7)" fill="#847DFF"/><use xlink:href="#path10_fill" transform="rotate(-17.3 1141.8 -554)" fill="#847DFF"/><use xlink:href="#path11_fill" transform="rotate(-17.3 752.6 -2007)" fill="#847DFF"/><use xlink:href="#path2_fill" transform="rotate(-17.3 634.5 -2405.4)" fill="#FFF"/><use xlink:href="#path12_fill" transform="rotate(-17.3 567.4 -1804)" fill="#847DFF"/><use xlink:href="#path13_fill" transform="rotate(-17.3 364.9 -2326.6)" fill="#5C57B2"/><use xlink:href="#path14_fill" transform="rotate(-17.3 523.1 -2107.5)" fill="#847DFF"/><use xlink:href="#path15_fill" transform="rotate(-17.3 900.8 -2271)" fill="#847DFF"/><defs><path id="path0_fill" d="M22 11.3h-2.4c-.5 0-1.7-2-1.7-2.5V6.6c0-1.8-2-6.6-3.8-6.6-1.8 0-3.7 4.8-3.7 6.6v2.2c0 .8-.6 2.5-1.4 2.5H6.6c-1.8 0-6.6 1.4-6.6 3.1 0 1.8 4.8 3.2 6.6 3.2h2.8c1 0 1 .9 1 1.4v3c0 1.7 2 6.6 3.7 6.6 1.7 0 3.7-4.9 3.7-6.6v-3c0-.4.8-1.4 1.3-1.4H22c1.7 0 6.5-1.4 6.5-3.2 0-1.7-4.8-3-6.5-3z"/><path id="path1_fill" d="M22 11.3h-2.4c-.5 0-1.7-2-1.7-2.5V6.6c0-1.8-2-6.6-3.8-6.6-1.8 0-3.7 4.8-3.7 6.6v2.2c0 .8-.6 2.5-1.4 2.5H6.6c-1.8 0-6.6 1.4-6.6 3.1 0 1.8 4.8 3.2 6.6 3.2h2.8c1 0 1 .9 1 1.4v3c0 1.7 2 6.6 3.7 6.6 1.7 0 3.7-4.9 3.7-6.6v-3c0-.4.8-1.4 1.3-1.4H22c1.7 0 6.5-1.4 6.5-3.2 0-1.7-4.8-3-6.5-3z"/><path id="path2_fill" d="M14 7.2h-1.5c-.3 0-1.2-1.2-1.2-1.6V4.2C11.3 3 9.9 0 8.8 0 7.6 0 6.3 3 6.3 4.2v1.4c0 .5 0 1.6-.5 1.6H4.2C3 7.2 0 7.9 0 9.1c0 1 3 1.8 4.2 1.8H6c.6 0 .3.9.3 1.2v2c0 1 1.3 4.1 2.5 4.1 1 0 2.4-3 2.4-4.2v-1.9c0-.2.7-1.1 1-1.1H14c1 0 4.2-.8 4.2-1.9C18.3 8 15 7.2 14 7.2z"/><path id="path3_fill" d="M9.4 18.7A9.4 9.4 0 1 0 9.4 0a9.4 9.4 0 0 0 0 18.7z"/><path id="path4_fill" d="M4.4 8.7a4.4 4.4 0 1 0 0-8.7 4.4 4.4 0 0 0 0 8.7z"/><path id="path5_fill" d="M3.1 6.2a3.1 3.1 0 1 0 0-6.2 3.1 3.1 0 0 0 0 6.2z"/><path id="path6_fill" d="M8.7 17.4A8.7 8.7 0 1 0 8.7 0a8.7 8.7 0 0 0 0 17.4z"/><path id="path7_fill" d="M4.3 8.7a4.3 4.3 0 1 0 0-8.7 4.3 4.3 0 0 0 0 8.7z"/><path id="path8_fill" d="M8.1 16.2A8.1 8.1 0 1 0 8.1 0a8.1 8.1 0 0 0 0 16.2z"/><path id="path9_fill" d="M3.1 6.2a3.1 3.1 0 1 0 0-6.2 3.1 3.1 0 0 0 0 6.2z"/><path id="path10_fill" d="M4.6 9.3a4.6 4.6 0 1 0 0-9.3 4.6 4.6 0 0 0 0 9.3z"/><path id="path11_fill" d="M22 11.3h-2.4c-.5 0-1.7-2-1.7-2.5V6.6c0-1.8-2-6.6-3.8-6.6-1.8 0-3.7 4.8-3.7 6.6v2.2c0 .8-.6 2.5-1.4 2.5H6.6c-1.8 0-6.6 1.4-6.6 3.1 0 1.8 4.8 3.2 6.6 3.2h2.8c1 0 1 .9 1 1.4v3c0 1.7 2 6.6 3.7 6.6 1.7 0 3.7-4.9 3.7-6.6v-3c0-.4.8-1.4 1.3-1.4H22c1.7 0 6.5-1.4 6.5-3.2 0-1.7-4.8-3-6.5-3z"/><path id="path12_fill" d="M4.4 8.7a4.4 4.4 0 1 0 0-8.7 4.4 4.4 0 0 0 0 8.7z"/><path id="path13_fill" d="M8.7 17.4A8.7 8.7 0 1 0 8.7 0a8.7 8.7 0 0 0 0 17.4z"/><path id="path14_fill" d="M4.3 8.7a4.3 4.3 0 1 0 0-8.7 4.3 4.3 0 0 0 0 8.7z"/><path id="path15_fill" d="M8.1 16.2A8.1 8.1 0 1 0 8.1 0a8.1 8.1 0 0 0 0 16.2z"/></defs></svg>